<svg width="1878" height="627" viewBox="0 0 1878 627" fill="none" xmlns="http://www.w3.org/2000/svg">
<path d="M539.539 502.426V462.412H629.143C632.335 462.412 634.957 461.272 637.009 458.992C639.061 456.94 640.087 454.432 640.087 451.468V408.718H639.745C634.501 414.646 629.143 419.434 623.671 423.082C618.199 426.73 612.271 429.466 605.887 431.29C599.731 432.886 592.891 433.684 585.367 433.684C569.863 433.684 555.841 430.036 543.301 422.74C530.989 415.216 521.185 404.728 513.889 391.276C506.593 377.824 502.945 362.206 502.945 344.422C502.945 327.55 506.479 312.388 513.547 298.936C520.843 285.256 531.331 274.426 545.011 266.446C558.691 258.466 575.335 254.476 594.943 254.476C613.867 254.476 630.169 258.352 643.849 266.104C657.529 273.856 668.131 284.8 675.655 298.936C683.179 313.072 686.941 329.83 686.941 349.21V452.836C686.941 468.112 682.495 480.196 673.603 489.088C664.939 497.98 652.855 502.426 637.351 502.426H539.539ZM594.943 393.67C604.291 393.67 612.271 391.504 618.883 387.172C625.495 382.84 630.511 377.14 633.931 370.072C637.579 362.776 639.403 354.682 639.403 345.79C639.403 336.214 637.579 327.55 633.931 319.798C630.511 312.046 625.495 305.89 618.883 301.33C612.271 296.77 604.291 294.49 594.943 294.49C585.823 294.49 577.843 296.77 571.003 301.33C564.391 305.662 559.261 311.59 555.613 319.114C552.193 326.638 550.483 335.074 550.483 344.422C550.483 353.542 552.193 361.864 555.613 369.388C559.261 376.684 564.391 382.612 571.003 387.172C577.843 391.504 585.823 393.67 594.943 393.67ZM798.368 437.104C782.408 437.104 768.5 433 756.644 424.792C744.788 416.584 735.554 405.64 728.942 391.96C722.558 378.052 719.366 362.776 719.366 346.132C719.366 329.032 723.014 313.528 730.31 299.62C737.834 285.712 748.55 274.768 762.458 266.788C776.366 258.58 793.01 254.476 812.39 254.476C831.998 254.476 848.528 258.58 861.98 266.788C875.432 274.996 885.692 286.054 892.761 299.962C899.828 313.87 903.362 329.26 903.362 346.132V433H856.508V403.93H855.824C852.404 410.086 848.072 415.672 842.828 420.688C837.812 425.704 831.656 429.694 824.36 432.658C817.064 435.622 808.4 437.104 798.368 437.104ZM811.706 397.09C820.826 397.09 828.692 394.81 835.304 390.25C841.916 385.69 846.932 379.534 850.352 371.782C854 363.802 855.824 355.024 855.824 345.448C855.824 335.872 854 327.322 850.352 319.798C846.932 312.046 841.916 305.89 835.304 301.33C828.692 296.77 820.826 294.49 811.706 294.49C802.358 294.49 794.264 296.77 787.424 301.33C780.812 305.89 775.682 312.046 772.034 319.798C768.614 327.322 766.904 335.872 766.904 345.448C766.904 355.024 768.614 363.802 772.034 371.782C775.682 379.534 780.812 385.69 787.424 390.25C794.264 394.81 802.358 397.09 811.706 397.09ZM946.008 433V308.17C946.008 292.666 950.34 280.582 959.004 271.918C967.896 263.026 980.094 258.58 995.598 258.58H1043.82V298.594H1003.81C1000.84 298.594 998.22 299.62 995.94 301.672C993.888 303.724 992.862 306.346 992.862 309.538V433H946.008ZM1138.36 437.104C1122.4 437.104 1108.5 433 1096.64 424.792C1084.78 416.584 1075.55 405.64 1068.94 391.96C1062.55 378.052 1059.36 362.776 1059.36 346.132C1059.36 329.032 1063.01 313.528 1070.31 299.62C1077.83 285.712 1088.55 274.768 1102.45 266.788C1116.36 258.58 1133.01 254.476 1152.39 254.476C1171.99 254.476 1188.52 258.58 1201.98 266.788C1215.43 274.996 1225.69 286.054 1232.76 299.962C1239.82 313.87 1243.36 329.26 1243.36 346.132V433H1196.5V403.93H1195.82C1192.4 410.086 1188.07 415.672 1182.82 420.688C1177.81 425.704 1171.65 429.694 1164.36 432.658C1157.06 435.622 1148.4 437.104 1138.36 437.104ZM1151.7 397.09C1160.82 397.09 1168.69 394.81 1175.3 390.25C1181.91 385.69 1186.93 379.534 1190.35 371.782C1194 363.802 1195.82 355.024 1195.82 345.448C1195.82 335.872 1194 327.322 1190.35 319.798C1186.93 312.046 1181.91 305.89 1175.3 301.33C1168.69 296.77 1160.82 294.49 1151.7 294.49C1142.35 294.49 1134.26 296.77 1127.42 301.33C1120.81 305.89 1115.68 312.046 1112.03 319.798C1108.61 327.322 1106.9 335.872 1106.9 345.448C1106.9 355.024 1108.61 363.802 1112.03 371.782C1115.68 379.534 1120.81 385.69 1127.42 390.25C1134.26 394.81 1142.35 397.09 1151.7 397.09ZM1287.71 433V332.794C1287.71 318.43 1291.02 305.32 1297.63 293.464C1304.47 281.608 1314.28 272.146 1327.04 265.078C1339.81 258.01 1355.09 254.476 1372.87 254.476C1390.88 254.476 1406.16 258.01 1418.7 265.078C1431.47 272.146 1441.16 281.608 1447.77 293.464C1454.61 305.32 1458.03 318.43 1458.03 332.794V433H1411.18V332.794C1411.18 325.726 1409.47 319.342 1406.05 313.642C1402.63 307.714 1397.95 303.04 1392.02 299.62C1386.32 296.2 1379.94 294.49 1372.87 294.49C1365.8 294.49 1359.31 296.2 1353.38 299.62C1347.68 303.04 1343.12 307.714 1339.7 313.642C1336.28 319.342 1334.57 325.726 1334.57 332.794V433H1287.71ZM1563 433C1547.5 433 1535.3 428.554 1526.41 419.662C1517.74 410.77 1513.41 398.686 1513.41 383.41V214.804H1560.26V382.042C1560.26 385.006 1561.29 387.628 1563.34 389.908C1565.62 391.96 1568.24 392.986 1571.21 392.986H1609.17V433H1563ZM1483.66 298.594V258.58H1609.17V298.594H1483.66ZM1645.08 433V258.58H1692.27V433H1645.08ZM1668.68 237.718C1660.7 237.718 1653.74 234.868 1647.81 229.168C1642.11 223.24 1639.26 216.286 1639.26 208.306C1639.26 200.326 1642.11 193.486 1647.81 187.786C1653.74 181.858 1660.7 178.894 1668.68 178.894C1676.66 178.894 1683.5 181.858 1689.2 187.786C1695.12 193.486 1698.09 200.326 1698.09 208.306C1698.09 216.286 1695.12 223.24 1689.2 229.168C1683.5 234.868 1676.66 237.718 1668.68 237.718Z" fill="white"/>
<path d="M119.69 195.156C152.574 195.046 185.457 194.962 218.34 194.911C233.609 194.887 248.878 194.854 264.146 194.8C277.456 194.753 290.765 194.722 304.075 194.712C311.121 194.706 318.167 194.691 325.213 194.657C331.849 194.625 338.485 194.615 345.121 194.622C347.552 194.621 349.984 194.611 352.415 194.593C368.584 194.478 382.207 194.987 394.492 206.962C397.281 210.3 399.45 213.752 401.508 217.588C401.994 218.465 402.479 219.341 402.979 220.245C411.011 237.938 406.706 261.632 400.266 279.203C389.781 307.572 370.925 328.683 343.711 341.735C330.586 347.482 316.948 349.17 302.762 349.075C300.497 349.081 298.233 349.088 295.968 349.095C293.571 349.099 291.174 349.095 288.778 349.088C283.759 349.074 278.741 349.089 273.723 349.107C261.276 349.15 248.829 349.158 236.382 349.155C226.67 349.153 216.959 349.161 207.247 349.202C202.261 349.222 197.276 349.22 192.29 349.201C188.468 349.192 184.646 349.214 180.824 349.231C179.449 349.22 178.074 349.208 176.658 349.197C169.33 349.207 169.33 349.207 162.717 352.07C159.193 356.22 159.056 359.172 159.115 364.485C159.952 372.125 163.338 379.874 168.804 385.239C174.945 389.653 179.893 392.467 187.567 392.478C188.787 392.482 190.006 392.487 191.263 392.492C192.6 392.491 193.938 392.491 195.316 392.49C196.725 392.494 198.135 392.498 199.587 392.503C202.653 392.511 205.72 392.518 208.786 392.522C213.643 392.529 218.499 392.548 223.355 392.571C225.019 392.578 226.684 392.586 228.348 392.593C229.598 392.599 229.598 392.599 230.873 392.604C242.177 392.654 253.481 392.693 264.786 392.708C272.412 392.717 280.039 392.744 287.666 392.789C291.698 392.813 295.73 392.827 299.762 392.821C304.269 392.815 308.774 392.845 313.281 392.878C314.604 392.87 315.928 392.862 317.291 392.854C325.079 392.946 331.75 393.788 338.362 398.226C342.421 402.67 344.534 406.9 344.867 412.984C344.503 418.581 342.967 423.298 339.532 427.742C336.875 429.809 334.428 431.024 331.346 432.464C330.574 432.854 329.802 433.244 329.007 433.645C327.202 433.757 325.392 433.794 323.583 433.795C322.438 433.798 321.293 433.802 320.114 433.805C318.852 433.803 317.591 433.8 316.291 433.798C314.965 433.8 313.639 433.802 312.273 433.804C307.855 433.809 303.437 433.806 299.019 433.802C295.932 433.803 292.844 433.804 289.756 433.805C283.251 433.807 276.746 433.805 270.241 433.799C262.813 433.793 255.385 433.795 247.956 433.801C241.529 433.807 235.103 433.807 228.676 433.804C224.861 433.802 221.046 433.802 217.232 433.806C208.755 433.812 200.279 433.782 191.802 433.691C188.843 433.659 185.884 433.635 182.924 433.617C178.333 433.58 173.743 433.502 169.152 433.414C167.765 433.408 166.377 433.402 164.947 433.395C153.486 433.103 144.28 429.641 135.796 421.719C115.294 399.559 103.056 368.273 104.077 337.935C104.906 328.579 108.198 320.823 115.013 314.401C126.727 307.23 140.221 308.331 153.457 308.367C155.199 308.368 156.94 308.367 158.682 308.366C162.414 308.365 166.147 308.367 169.879 308.37C175.793 308.375 181.707 308.364 187.621 308.349C188.622 308.347 189.624 308.345 190.655 308.342C192.702 308.337 194.748 308.332 196.795 308.327C210.548 308.294 224.301 308.27 238.054 308.291C247.353 308.304 256.651 308.293 265.949 308.253C270.859 308.233 275.769 308.225 280.679 308.248C285.301 308.27 289.922 308.258 294.544 308.222C296.229 308.215 297.915 308.219 299.6 308.237C315.304 308.39 326.561 303.672 337.915 292.688C348.684 280.781 358.733 265.142 358.493 248.543C358.141 244.873 357.095 242.816 354.733 240.02C349.899 236.335 345.705 235.968 339.837 236.008C338.935 236 338.032 235.992 337.102 235.984C334.082 235.962 331.062 235.965 328.042 235.968C325.875 235.957 323.709 235.945 321.542 235.931C315.662 235.899 309.782 235.888 303.901 235.881C297.755 235.87 291.61 235.839 285.464 235.81C273.826 235.758 262.189 235.725 250.552 235.698C237.303 235.666 224.054 235.614 210.805 235.56C183.552 235.451 156.299 235.366 129.045 235.298C128.479 233.601 127.914 231.903 127.35 230.206C127.035 229.261 126.72 228.315 126.396 227.342C125.411 224.281 124.619 221.215 123.916 218.077C123.663 216.955 123.411 215.834 123.15 214.678C122.776 212.977 122.776 212.977 122.394 211.242C122.131 210.081 121.868 208.92 121.597 207.723C119.69 199.167 119.69 199.167 119.69 195.156Z" fill="#0C0C0C"/>
<path d="M119.69 195.156C152.574 195.046 185.457 194.962 218.34 194.911C233.609 194.887 248.878 194.854 264.146 194.8C277.456 194.753 290.765 194.722 304.075 194.712C311.121 194.706 318.167 194.691 325.213 194.657C331.849 194.625 338.485 194.615 345.121 194.622C347.552 194.621 349.984 194.611 352.415 194.593C368.584 194.478 382.207 194.987 394.492 206.962C397.281 210.3 399.45 213.752 401.508 217.588C401.994 218.465 402.479 219.341 402.979 220.245C411.011 237.938 406.706 261.632 400.266 279.203C389.781 307.572 370.925 328.683 343.711 341.735C330.586 347.482 316.948 349.17 302.762 349.075C300.497 349.081 298.233 349.088 295.968 349.095C293.571 349.099 291.174 349.095 288.778 349.088C283.759 349.074 278.741 349.089 273.723 349.107C261.276 349.15 248.829 349.158 236.382 349.155C226.67 349.153 216.959 349.161 207.247 349.202C202.261 349.222 197.276 349.22 192.29 349.201C188.468 349.192 184.646 349.214 180.824 349.231C179.449 349.22 178.074 349.208 176.658 349.197C169.33 349.207 169.33 349.207 162.717 352.07C159.193 356.22 159.056 359.172 159.115 364.485C159.952 372.125 163.338 379.874 168.804 385.239C174.945 389.653 179.893 392.467 187.567 392.478C188.787 392.482 190.006 392.487 191.263 392.492C192.6 392.491 193.938 392.491 195.316 392.49C196.725 392.494 198.135 392.498 199.587 392.503C202.653 392.511 205.72 392.518 208.786 392.522C213.643 392.529 218.499 392.548 223.355 392.571C225.019 392.578 226.684 392.586 228.348 392.593C229.598 392.599 229.598 392.599 230.873 392.604C242.177 392.654 253.481 392.693 264.786 392.708C272.412 392.717 280.039 392.744 287.666 392.789C291.698 392.813 295.73 392.827 299.762 392.821C304.269 392.815 308.774 392.845 313.281 392.878C314.604 392.87 315.928 392.862 317.291 392.854C325.079 392.946 331.75 393.788 338.362 398.226C342.421 402.67 344.534 406.9 344.867 412.984C344.503 418.581 342.967 423.298 339.532 427.742C336.875 429.809 334.428 431.024 331.346 432.464C330.574 432.854 329.802 433.244 329.007 433.645C327.202 433.757 325.392 433.794 323.583 433.795C322.438 433.798 321.293 433.802 320.114 433.805C318.852 433.803 317.591 433.8 316.291 433.798C314.965 433.8 313.639 433.802 312.273 433.804C307.855 433.809 303.437 433.806 299.019 433.802C295.932 433.803 292.844 433.804 289.756 433.805C283.251 433.807 276.746 433.805 270.241 433.799C262.813 433.793 255.385 433.795 247.956 433.801C241.529 433.807 235.103 433.807 228.676 433.804C224.861 433.802 221.046 433.802 217.232 433.806C208.755 433.812 200.279 433.782 191.802 433.691C188.843 433.659 185.884 433.635 182.924 433.617C178.333 433.58 173.743 433.502 169.152 433.414C167.765 433.408 166.377 433.402 164.947 433.395C153.486 433.103 144.28 429.641 135.796 421.719C115.294 399.559 103.056 368.273 104.077 337.935C104.906 328.579 108.198 320.823 115.013 314.401C126.727 307.23 140.221 308.331 153.457 308.367C155.199 308.368 156.94 308.367 158.682 308.366C162.414 308.365 166.147 308.367 169.879 308.37C175.793 308.375 181.707 308.364 187.621 308.349C188.622 308.347 189.624 308.345 190.655 308.342C192.702 308.337 194.748 308.332 196.795 308.327C210.548 308.294 224.301 308.27 238.054 308.291C247.353 308.304 256.651 308.293 265.949 308.253C270.859 308.233 275.769 308.225 280.679 308.248C285.301 308.27 289.922 308.258 294.544 308.222C296.229 308.215 297.915 308.219 299.6 308.237C315.304 308.39 326.561 303.672 337.915 292.688C348.684 280.781 358.733 265.142 358.493 248.543C358.141 244.873 357.095 242.816 354.733 240.02C349.899 236.335 345.705 235.968 339.837 236.008C338.935 236 338.032 235.992 337.102 235.984C334.082 235.962 331.062 235.965 328.042 235.968C325.875 235.957 323.709 235.945 321.542 235.931C315.662 235.899 309.782 235.888 303.901 235.881C297.755 235.87 291.61 235.839 285.464 235.81C273.826 235.758 262.189 235.725 250.552 235.698C237.303 235.666 224.054 235.614 210.805 235.56C183.552 235.451 156.299 235.366 129.045 235.298C128.479 233.601 127.914 231.903 127.35 230.206C127.035 229.261 126.72 228.315 126.396 227.342C125.411 224.281 124.619 221.215 123.916 218.077C123.663 216.955 123.411 215.834 123.15 214.678C122.776 212.977 122.776 212.977 122.394 211.242C122.131 210.081 121.868 208.92 121.597 207.723C119.69 199.167 119.69 199.167 119.69 195.156Z" fill="white"/>
<path d="M28.9769 139.039C30.3607 139.034 31.7445 139.03 33.1703 139.025C36.0883 139.022 39.0063 139.031 41.9242 139.05C46.3589 139.076 50.7914 139.051 55.2261 139.02C58.0726 139.023 60.9191 139.029 63.7657 139.039C65.7323 139.024 65.7323 139.024 67.7386 139.01C78.7731 139.141 88.4976 141.1 97.021 148.602C105.412 157.352 108.678 171.933 111.39 183.336C111.771 184.875 112.154 186.414 112.538 187.953C113.544 192.002 114.527 196.056 115.504 200.113C116.521 204.314 117.561 208.51 118.597 212.707C120.937 222.198 123.239 231.699 125.537 241.201C126.101 243.524 126.665 245.847 127.23 248.171C129.494 257.494 131.731 266.823 133.93 276.163C134.657 279.186 135.402 282.203 136.164 285.217C136.38 286.076 136.597 286.936 136.82 287.821C137.243 289.495 137.669 291.168 138.1 292.84C138.947 296.197 139.569 299.113 139.569 302.594C138.38 302.64 138.38 302.64 137.166 302.686C126.383 303.35 116.749 305.846 108.627 313.386C105.203 317.562 103.084 322.434 100.98 327.387C98.2712 323.285 97.4789 319.439 96.4806 314.705C96.2789 313.78 96.0772 312.856 95.8695 311.903C95.4328 309.9 94.9993 307.897 94.5686 305.893C93.413 300.522 92.2318 295.156 91.0494 289.792C90.8074 288.692 90.5653 287.592 90.3159 286.459C87.4918 273.695 84.4078 260.997 81.3048 248.299C79.3222 240.176 77.3719 232.052 75.5781 223.883C75.2724 222.497 74.9667 221.11 74.6517 219.681C74.106 217.182 73.5706 214.679 73.049 212.174C71.197 203.7 68.2952 195.963 64.7295 188.072C64.3809 187.207 64.0323 186.342 63.6732 185.45C62.0339 182.765 60.5771 182.177 57.7133 180.988C56.9253 180.578 56.1373 180.168 55.3254 179.745C46.4186 175.594 37.8484 175.63 28.1867 175.675C25.085 175.69 21.9887 175.673 18.8866 175.639C16.8488 175.647 16.8488 175.647 14.7698 175.655C10.0849 174.958 7.58593 173.344 3.9223 170.363C0.359471 164.247 -0.679276 158.426 0.414189 151.472C2.93675 145.848 6.08582 143.297 11.5696 140.648C17.2355 138.714 23.0536 138.996 28.9769 139.039Z" fill="#024BAD"/>
<path d="M198.892 443.524C204.158 447.349 207.689 452.252 209.732 458.439C210.596 467.167 209.93 474.632 205.054 482.052C200.003 487.806 194.8 490.958 187.144 491.792C180.009 492.144 174.59 491.117 168.804 486.774C162.189 480.465 158.303 475.035 157.841 465.744C158.037 458.332 160.098 453.229 165.145 447.836C175.522 438.231 186.312 436.524 198.892 443.524Z" fill="#024BAD"/>
<path d="M314.622 442.69C320.232 445.988 324.269 451.193 326.668 457.258C327.679 466.23 327.637 474.713 321.99 482.052C315.92 488.685 310.056 491.497 301.088 491.94C294.046 491.758 288.883 489.746 283.726 484.87C278.287 478.785 274.49 472.94 274.891 464.425C276.07 455.545 280.374 449.046 286.909 443.091C296.154 437.56 305.054 438.468 314.622 442.69Z" fill="#024BAD"/>
<path d="M28.9769 139.039C30.3607 139.034 31.7445 139.03 33.1703 139.025C36.0883 139.022 39.0063 139.031 41.9242 139.05C46.3589 139.076 50.7914 139.051 55.2261 139.02C58.0726 139.023 60.9191 139.029 63.7657 139.039C65.7323 139.024 65.7323 139.024 67.7386 139.01C78.7731 139.141 88.4976 141.1 97.021 148.602C105.412 157.352 108.678 171.933 111.39 183.336C111.771 184.875 112.154 186.414 112.538 187.953C113.544 192.002 114.527 196.056 115.504 200.113C116.521 204.314 117.561 208.51 118.597 212.707C120.937 222.198 123.239 231.699 125.537 241.201C126.101 243.524 126.665 245.847 127.23 248.171C129.494 257.494 131.731 266.823 133.93 276.163C134.657 279.186 135.402 282.203 136.164 285.217C136.38 286.076 136.597 286.936 136.82 287.821C137.243 289.495 137.669 291.168 138.1 292.84C138.947 296.197 139.569 299.113 139.569 302.594C138.38 302.64 138.38 302.64 137.166 302.686C126.383 303.35 116.749 305.846 108.627 313.386C105.203 317.562 103.084 322.434 100.98 327.387C98.2712 323.285 97.4789 319.439 96.4806 314.705C96.2789 313.78 96.0772 312.856 95.8695 311.903C95.4328 309.9 94.9993 307.897 94.5686 305.893C93.413 300.522 92.2318 295.156 91.0494 289.792C90.8074 288.692 90.5653 287.592 90.3159 286.459C87.4918 273.695 84.4078 260.997 81.3048 248.299C79.3222 240.176 77.3719 232.052 75.5781 223.883C75.2724 222.497 74.9667 221.11 74.6517 219.681C74.106 217.182 73.5706 214.679 73.049 212.174C71.197 203.7 68.2952 195.963 64.7295 188.072C64.3809 187.207 64.0323 186.342 63.6732 185.45C62.0339 182.765 60.5771 182.177 57.7133 180.988C56.9253 180.578 56.1373 180.168 55.3254 179.745C46.4186 175.594 37.8484 175.63 28.1867 175.675C25.085 175.69 21.9887 175.673 18.8866 175.639C16.8488 175.647 16.8488 175.647 14.7698 175.655C10.0849 174.958 7.58593 173.344 3.9223 170.363C0.359471 164.247 -0.679276 158.426 0.414189 151.472C2.93675 145.848 6.08582 143.297 11.5696 140.648C17.2355 138.714 23.0536 138.996 28.9769 139.039Z" fill="#024BAD"/>
<path d="M198.892 443.524C204.158 447.349 207.689 452.252 209.732 458.439C210.596 467.167 209.93 474.632 205.054 482.052C200.003 487.806 194.8 490.958 187.144 491.792C180.009 492.144 174.59 491.117 168.804 486.774C162.189 480.465 158.303 475.035 157.841 465.744C158.037 458.332 160.098 453.229 165.145 447.836C175.522 438.231 186.312 436.524 198.892 443.524Z" fill="#024BAD"/>
<path d="M314.622 442.69C320.232 445.988 324.269 451.193 326.668 457.258C327.679 466.23 327.637 474.713 321.99 482.052C315.92 488.685 310.056 491.497 301.088 491.94C294.046 491.758 288.883 489.746 283.726 484.87C278.287 478.785 274.49 472.94 274.891 464.425C276.07 455.545 280.374 449.046 286.909 443.091C296.154 437.56 305.054 438.468 314.622 442.69Z" fill="#024BAD"/>
</svg>
